REM DIRINDEX 1\2,1\3,1\4,1\5
REM DIRNAME cjc044,folder01,folder02,folder03,folder04
TITLE ""
FILE "1800_137.mp3" MP3
  TRACK 01 AUDIO
    TITLE "2:cjc044_4121"
    INDEX 01 00:00:00
  TRACK 02 AUDIO
    TITLE "0:"
    INDEX 01 00:00:70
  TRACK 03 AUDIO
    TITLE "3:cjc044_4122"
    INDEX 01 00:01:58
  TRACK 04 AUDIO
    TITLE "0:"
    INDEX 01 00:02:65
  TRACK 05 AUDIO
    TITLE "4:cjc044_4123"
    INDEX 01 00:03:45
  TRACK 06 AUDIO
    TITLE "0:"
    INDEX 01 00:04:52
  TRACK 07 AUDIO
    TITLE "5:cjc044_4124"
    INDEX 01 00:05:36
  TRACK 08 AUDIO
    TITLE "0:"
    INDEX 01 00:08:64
  TRACK 09 AUDIO
    TITLE "2:cjc044_4125"
    INDEX 01 00:10:45
  TRACK 10 AUDIO
    TITLE "0:"
    INDEX 01 00:11:68
  TRACK 11 AUDIO
    TITLE "3:cjc044_4126"
    INDEX 01 00:12:52
  TRACK 12 AUDIO
    TITLE "0:"
    INDEX 01 00:13:63
  TRACK 13 AUDIO
    TITLE "4:cjc044_4127"
    INDEX 01 00:14:43
  TRACK 14 AUDIO
    TITLE "0:"
    INDEX 01 00:15:66
  TRACK 15 AUDIO
    TITLE "5:cjc044_4128"
    INDEX 01 00:16:46
  TRACK 16 AUDIO
    TITLE "0:"
    INDEX 01 00:19:56
  TRACK 17 AUDIO
    TITLE "2:cjc044_4129"
    INDEX 01 00:21:37
  TRACK 18 AUDIO
    TITLE "0:"
    INDEX 01 00:22:48
  TRACK 19 AUDIO
    TITLE "3:cjc044_4130"
    INDEX 01 00:23:32
  TRACK 20 AUDIO
    TITLE "0:"
    INDEX 01 00:24:20
  TRACK 21 AUDIO
    TITLE "4:cjc044_4131"
    INDEX 01 00:25:07
  TRACK 22 AUDIO
    TITLE "0:"
    INDEX 01 00:26:20
  TRACK 23 AUDIO
    TITLE "5:cjc044_4132"
    INDEX 01 00:27:04
  TRACK 24 AUDIO
    TITLE "0:"
    INDEX 01 00:30:22
  TRACK 25 AUDIO
    TITLE "2:cjc044_4133"
    INDEX 01 00:32:09
  TRACK 26 AUDIO
    TITLE "0:"
    INDEX 01 00:33:01
  TRACK 27 AUDIO
    TITLE "3:cjc044_4134"
    INDEX 01 00:33:69
  TRACK 28 AUDIO
    TITLE "0:"
    INDEX 01 00:35:17
  TRACK 29 AUDIO
    TITLE "4:cjc044_4135"
    INDEX 01 00:35:72
  TRACK 30 AUDIO
    TITLE "0:"
    INDEX 01 00:36:70
  TRACK 31 AUDIO
    TITLE "5:cjc044_4136"
    INDEX 01 00:37:46
  TRACK 32 AUDIO
    TITLE "0:"
    INDEX 01 00:40:17
  TRACK 33 AUDIO
    TITLE "2:cjc044_4137"
    INDEX 01 00:42:06
  TRACK 34 AUDIO
    TITLE "0:"
    INDEX 01 00:43:03
  TRACK 35 AUDIO
    TITLE "3:cjc044_4138"
    INDEX 01 00:43:68
  TRACK 36 AUDIO
    TITLE "0:"
    INDEX 01 00:44:52
  TRACK 37 AUDIO
    TITLE "4:cjc044_4139"
    INDEX 01 00:45:33
  TRACK 38 AUDIO
    TITLE "0:"
    INDEX 01 00:46:29
  TRACK 39 AUDIO
    TITLE "5:cjc044_4140"
    INDEX 01 00:47:11
  TRACK 40 AUDIO
    TITLE "0:"
    INDEX 01 00:50:23
  TRACK 41 AUDIO
    TITLE "2:cjc044_4141"
    INDEX 01 00:52:06
  TRACK 42 AUDIO
    TITLE "0:"
    INDEX 01 00:53:09
  TRACK 43 AUDIO
    TITLE "3:cjc044_4142"
    INDEX 01 00:53:68
  TRACK 44 AUDIO
    TITLE "0:"
    INDEX 01 00:54:74
  TRACK 45 AUDIO
    TITLE "4:cjc044_4143"
    INDEX 01 00:55:57
  TRACK 46 AUDIO
    TITLE "0:"
    INDEX 01 00:56:59
  TRACK 47 AUDIO
    TITLE "5:cjc044_4144"
    INDEX 01 00:57:39
  TRACK 48 AUDIO
    TITLE "0:"
    INDEX 01 01:00:51
  TRACK 49 AUDIO
    TITLE "2:cjc044_4145"
    INDEX 01 01:02:38
  TRACK 50 AUDIO
    TITLE "0:"
    INDEX 01 01:03:35
  TRACK 51 AUDIO
    TITLE "3:cjc044_4146"
    INDEX 01 01:04:33
  TRACK 52 AUDIO
    TITLE "0:"
    INDEX 01 01:05:24
  TRACK 53 AUDIO
    TITLE "4:cjc044_4147"
    INDEX 01 01:06:14
  TRACK 54 AUDIO
    TITLE "0:"
    INDEX 01 01:07:17
  TRACK 55 AUDIO
    TITLE "5:cjc044_4148"
    INDEX 01 01:08:01
  TRACK 56 AUDIO
    TITLE "0:"
    INDEX 01 01:11:31
  TRACK 57 AUDIO
    TITLE "2:cjc044_4149"
    INDEX 01 01:13:20
  TRACK 58 AUDIO
    TITLE "0:"
    INDEX 01 01:14:21
  TRACK 59 AUDIO
    TITLE "3:cjc044_4150"
    INDEX 01 01:14:74
  TRACK 60 AUDIO
    TITLE "0:"
    INDEX 01 01:16:22
  TRACK 61 AUDIO
    TITLE "4:cjc044_4151"
    INDEX 01 01:16:71
  TRACK 62 AUDIO
    TITLE "0:"
    INDEX 01 01:17:71
  TRACK 63 AUDIO
    TITLE "5:cjc044_4152"
    INDEX 01 01:18:49
  TRACK 64 AUDIO
    TITLE "0:"
    INDEX 01 01:22:29
  TRACK 65 AUDIO
    TITLE "2:cjc044_4153"
    INDEX 01 01:24:20
  TRACK 66 AUDIO
    TITLE "0:"
    INDEX 01 01:25:39
  TRACK 67 AUDIO
    TITLE "3:cjc044_4154"
    INDEX 01 01:26:27
  TRACK 68 AUDIO
    TITLE "0:"
    INDEX 01 01:28:31
  TRACK 69 AUDIO
    TITLE "4:cjc044_4155"
    INDEX 01 01:29:11
  TRACK 70 AUDIO
    TITLE "0:"
    INDEX 01 01:30:36
  TRACK 71 AUDIO
    TITLE "5:cjc044_4156"
    INDEX 01 01:31:12
  TRACK 72 AUDIO
    TITLE "0:"
    INDEX 01 01:34:34
  TRACK 73 AUDIO
    TITLE "2:cjc044_4157"
    INDEX 01 01:36:15
  TRACK 74 AUDIO
    TITLE "0:"
    INDEX 01 01:37:22
  TRACK 75 AUDIO
    TITLE "3:cjc044_4158"
    INDEX 01 01:37:73
  TRACK 76 AUDIO
    TITLE "0:"
    INDEX 01 01:39:02
  TRACK 77 AUDIO
    TITLE "4:cjc044_4159"
    INDEX 01 01:39:55
  TRACK 78 AUDIO
    TITLE "0:"
    INDEX 01 01:40:62
  TRACK 79 AUDIO
    TITLE "5:cjc044_4160"
    INDEX 01 01:41:32
  TRACK 80 AUDIO
    TITLE "0:"
    INDEX 01 01:45:16
